<?xml version="1.0" encoding="utf-8"?>
<!-- Generator: Adobe Illustrator 26.1.0, SVG Export Plug-In . SVG Version: 6.00 Build 0)  -->
<svg version="1.1" id="a" xmlns="http://www.w3.org/2000/svg" xmlns:xlink="http://www.w3.org/1999/xlink" x="0px" y="0px"
	 viewBox="0 0 500 121.3" style="enable-background:new 0 0 500 121.3;" xml:space="preserve">
<style type="text/css">
	.st0{enable-background:new    ;}
	.st1{fill:#DFD2C8;}
</style>
<g class="st0">
	<path class="st1" d="M44.4,94.1c-0.9,0-1.2,1.2-1.4,2.4v9.4H10.9V9.3H43v16c2.3-11,10.4-18.6,22.6-18.6c12.5,0,23.7,7.5,23.7,23.2
		c0,9.8-8,21.3-19.8,21.3c1.1,0,25.5,3.6,25.5,26.6v7.2c0,13.3-9.2,23.9-25.5,23.9C51.3,108.9,47.7,94.1,44.4,94.1z M50.6,44.5
		c5.3,0.2,9.2-3.2,9.2-7.7V30c0-4.5-3.6-8-8.6-8c-4.7,0-8.2,3.5-8.2,8v6.8C43,41,46.2,44.3,50.6,44.5z M51.2,89.2
		c5,0,8.6-5,8.6-11.8v-5.6C59.8,48.9,46,55.6,43,45.7v31.7C43,84.2,46.5,89.2,51.2,89.2z"/>
	<path class="st1" d="M99.6,71.6c0-23.1,13.6-35.9,38.2-35.9c19.9,0,36.8,9.5,36.8,25.5c0,9.7-8.9,16.9-20.7,16.9
		c-12.7,0-18.9-3.3-21.9-6c1.5,11.2,7.4,18.4,19.9,18.4c30.8,0,21.4-55,68.5-55c24.6,0,41.2,13.6,41.2,36.7v33.7h-35.2V88.7
		c-2.1,8.3-10.3,19.8-24.3,19.8c-13.1,0-23.1-10.3-23.1-24c0-13.6,10-23.9,23.1-23.9c10.9,0,21.7,6.6,24.3,18.3v-0.8
		c0-14.8-5.4-29.3-20.5-29.3c-36.4,0-23.6,59.5-68.2,59.5C113.2,108.3,99.6,94.7,99.6,71.6z M131.9,69.8C136,72,144,74.4,144,60
		c0-10.4-2.7-13.9-6.2-13.9c-3.5,0-6,3.5-6,13.9v5.7C131.8,67.1,131.8,68.5,131.9,69.8z M220.4,93.2c3.3,0,6-3,6-8.8
		c0-5.6-2.7-8.6-6-8.6s-5.9,3-5.9,8.8C214.5,90.2,217.1,93.2,220.4,93.2z"/>
</g>
<g class="st0">
	<path class="st1" d="M353.4,105.9h-35.2v-16c-2.3,11-10.7,18.6-24.3,18.6c-13.1,0-23.1-10.6-23.1-24.8V38H306v43.5
		c0,7.5,2.1,11.8,6,11.8c3.9,0,6.2-4.2,6.2-11.8V38h35.2V105.9z"/>
</g>
<g class="st0">
	<path class="st1" d="M359.4,54.1V38h8l29.3-18.3h1.7V38h12.8v16.2h-12.8v27.2c0,7.5,1.4,11.8,6.8,11.8c3.2,0,5.4-2.3,5.4-5.4h2
		c0,12.4-12.1,20.7-23.9,20.7c-15.5,0-25.5-10.6-25.5-24.8V54.1H359.4z"/>
</g>
<g class="st0">
	<path class="st1" d="M416.4,71.6c0-23.1,13.6-35.9,38.2-35.9c19.9,0,36.8,9.5,36.8,25.5c0,9.7-8.9,16.9-20.7,16.9
		c-12.7,0-18.9-3.3-21.9-6c1.5,11.2,7.4,18.4,19.9,18.4c8.8,0,16.2-5,19.5-10.7h2c-3.8,16.2-12.7,28.5-35.6,28.5
		C430,108.3,416.4,94.7,416.4,71.6z M448.7,16.2h12.5l-6.3,17.5h-8.2L448.7,16.2z M448.7,69.8c4.1,2.1,12.1,4.5,12.1-9.8
		c0-10.4-2.7-13.9-6.2-13.9c-3.5,0-6,3.5-6,13.9v5.7C448.5,67.1,448.5,68.5,448.7,69.8z"/>
</g>
</svg>
