<?xml version="1.0" encoding="utf-8"?>
<!-- Generator: Adobe Illustrator 26.1.0, SVG Export Plug-In . SVG Version: 6.00 Build 0)  -->
<svg version="1.1" id="Layer_1" xmlns="http://www.w3.org/2000/svg" xmlns:xlink="http://www.w3.org/1999/xlink" x="0px" y="0px"
	 viewBox="0 0 50 50" style="enable-background:new 0 0 50 50;" xml:space="preserve">
<style type="text/css">
	.st0{fill:#F7EDE5;}
</style>
<path class="st0" d="M50,48.3L34.9,33.1c3.4-3.9,5.2-8.9,5-14.1c-0.2-5.2-2.5-10-6.3-13.6C29.8,1.9,24.8-0.1,19.6,0
	C14.4,0.1,9.5,2.2,5.8,5.8C2.2,9.5,0.1,14.4,0,19.6c-0.1,5.2,1.9,10.2,5.4,13.9c3.5,3.8,8.4,6,13.6,6.3c5.2,0.2,10.2-1.5,14.1-5
	L48.3,50L50,48.3z M20,37.4c-4.6,0-9-1.8-12.3-5.1S2.7,24.6,2.7,20s1.8-9,5.1-12.3S15.4,2.7,20,2.7s9,1.8,12.3,5.1s5.1,7.7,5.1,12.3
	s-1.8,9-5.1,12.3S24.6,37.4,20,37.4z"/>
</svg>
